<?xml version="1.0" encoding="utf-8"?>
<!-- Generator: Adobe Illustrator 24.3.0, SVG Export Plug-In . SVG Version: 6.00 Build 0)  -->
<svg version="1.1" id="Layer_1" xmlns="http://www.w3.org/2000/svg" xmlns:xlink="http://www.w3.org/1999/xlink" x="0px" y="0px"
	 viewBox="0 0 595.28 841.89" style="enable-background:new 0 0 595.28 841.89;" xml:space="preserve">
<style type="text/css">
	.st0{fill:#472B74;}
</style>
<g>
	<path class="st0" d="M340.37,492.51c13.47-0.58,28.31-3.66,40.02-13.38c20.23-16.49,21.98-41.22,21.98-65.7V390.7
		c0-29.98,1.75-53.96,2.75-61.7c-1.75,0.5-8.49,1-16.49,1c-3.75,0-9.74-0.25-12.74-0.5c1.25,8.24,3,30.98,3,61.2v22.23
		c0,26.73-2.25,39.71-12.24,49.46c-7.24,6.99-18.99,8.74-26.98,8.74c-0.27,0-12.01,0-26.15,0l4.98,21.44
		C330.48,492.56,339.76,492.54,340.37,492.51z"/>
	<path class="st0" d="M264.22,471.11c-7.35-0.2-17.21-1.63-25.63-8.22c-9.99-7.74-15.24-18.48-15.24-44.21V390.7
		c0-29.98,1.25-53.96,2.25-61.7c-4,0.75-12.24,1-21.98,1c-5.25,0-10.74-0.25-13.74-0.5c1.5,7,3.25,30.98,3.25,61.2v33.97
		c0,30.73,7.75,44.47,18.99,53.96c12.49,10.74,31.72,13.99,49.71,13.99c0.54,0,8.55,0,19.25-0.01l4.99-21.48
		C273.94,471.13,264.48,471.12,264.22,471.11z"/>
	<path class="st0" d="M313.85,509.04l-11.71-50.45c-0.25-1.09-1.23-1.87-2.35-1.87c-1.12,0-2.1,0.77-2.35,1.87l-9.81,42.26
		l-1.9,8.19c-0.17,0.72,0,1.47,0.46,2.05c0.46,0.58,1.15,0.91,1.89,0.91h23.43c0.74,0,1.43-0.34,1.89-0.91
		S314.02,509.76,313.85,509.04z"/>
</g>
</svg>
