<?xml version="1.0" encoding="utf-8"?>
<!-- Generator: Adobe Illustrator 24.3.0, SVG Export Plug-In . SVG Version: 6.00 Build 0)  -->
<svg version="1.1" id="Layer_1" xmlns="http://www.w3.org/2000/svg" xmlns:xlink="http://www.w3.org/1999/xlink" x="0px" y="0px"
	 viewBox="0 0 595.28 841.89" style="enable-background:new 0 0 595.28 841.89;" xml:space="preserve">
<style type="text/css">
	.st0{fill:#472B74;}
</style>
<g>
	<path class="st0" d="M155.06,421.18c2.09,0,3.78-0.05,4.7-0.2c-0.26,1.79-0.51,7.61-0.51,14.87v6.79c0,6.33,1.28,8.94,3.52,10.83
		c2.2,1.89,4.9,2.15,6.85,2.15s4.65-0.51,6.39-2.3c2.61-2.5,3.07-5.67,3.07-12v-5.47c0-7.3-0.36-12.82-0.66-14.76
		c0.66,0.05,1.99,0.1,2.76,0.1c1.63,0,3.12-0.1,3.52-0.2c-0.31,1.79-0.61,7.61-0.61,14.87v5.52c0,5.98-0.41,11.85-5.06,15.73
		c-3.07,2.66-7.05,3.27-10.47,3.27c-4.04,0-8.43-0.82-11.29-3.42c-2.61-2.3-4.44-5.62-4.44-12.98v-8.12c0-7.3-0.31-13.18-0.66-14.76
		C152.81,421.13,153.99,421.18,155.06,421.18z"/>
	<path class="st0" d="M195.12,439.37c0-6.18-0.26-11.09-0.56-12.52c0.51,0.05,1.99,0.1,3.07,0.1c1.84,0,3.58-0.05,4.19-0.2
		c-0.2,1.69-0.46,6.44-0.46,12.41v7.3c0,7.77,0.1,8.63,0.31,8.84c0.15,0.1,0.56,0.26,1.17,0.31c0.92,0.1,2.35,0.15,4.24,0.15
		c4.19,0,6.79-0.41,8.12-1.07c-0.46,1.17-1.12,3.93-1.43,4.96c-0.31,0.1-0.97,0.1-3.12,0.1c-6.69,0-9.14-0.26-12.57-0.26
		c-1.79,0-2.76,0.05-3.42,0.1c0.15-1.58,0.46-6.13,0.46-12.57V439.37z"/>
	<path class="st0" d="M221.33,439.37c0-7.1-0.26-11.19-0.61-12.52c0.87,0.1,2.45,0.1,3.83,0.1h10.68c1.38,0,3.42,0,4.29-0.25
		c-0.15,0.92-0.41,2.96-0.41,5.26c-0.77-0.41-1.84-0.72-4.39-0.92c-1.53-0.1-4.39-0.2-7.05-0.2c-0.05,0-0.15,0.05-0.15,0.15v9.09
		c0,0.1,0.05,0.26,0.15,0.26c0.97,0,5.36,0,6.9-0.05c2.76-0.1,3.63-0.25,4.19-0.41c-0.31,1.43-0.46,4.04-0.46,5.31
		c-0.77-0.46-1.63-0.71-3.58-0.87c-1.48-0.1-5.93-0.15-7.05-0.15c-0.1,0-0.15,0.1-0.15,0.21v2.09c0,7.51,0.1,8.58,0.31,8.79
		c0.15,0.15,0.56,0.26,1.02,0.31c1.23,0.1,2.5,0.2,4.39,0.2c3.68,0,6.13-0.31,7.71-1.02c-0.46,1.43-0.97,3.68-1.12,4.9
		c-0.2,0.1-0.82,0.15-2.61,0.15c-6.03,0-9.55-0.31-12.21-0.31c-1.99,0-3.47,0.05-4.19,0.1c0.2-1.58,0.51-6.13,0.51-12.57V439.37z"/>
	<path class="st0" d="M278.19,454.29c0,2.45-0.05,3.58,0,4.14c-2.61,0.97-7.61,1.79-11.75,1.79c-7.25,0-12.92-2.2-16.4-6.33
		c-2.3-2.66-3.83-6.33-3.83-10.93c0-7.15,3.73-11.34,7.46-13.69c4.19-2.66,9.66-3.07,13.08-3.07c5.62,0,10.17,1.43,11.55,1.58
		c-0.26,1.02-0.72,4.09-0.72,6.44c-1.43-1.58-5.62-4.04-12.11-4.04c-3.88,0-6.79,1.07-8.89,3.06c-2.04,1.99-3.42,5.06-3.42,8.74
		c0,8.43,4.7,14.15,14.15,14.15c1.48,0,3.52-0.15,4.55-0.77c0.05-0.05,0.1-0.41,0.1-1.12v-3.93c0-3.22-0.36-5.93-0.66-6.95
		c0.82,0.1,2.25,0.1,3.37,0.1c2.09,0,3.12-0.1,3.83-0.15c-0.1,1.07-0.31,4.04-0.31,8.22V454.29z"/>
	<path class="st0" d="M294.13,450.56c-0.1,0-0.2,0.05-0.2,0.15c-1.23,3.12-2.61,6.9-3.12,8.89c-0.66-0.05-1.33-0.1-2.76-0.1
		c-1.69,0-3.12,0.1-3.68,0.15c1.23-2.3,3.01-6.13,5.47-11.34l8.74-19.97c0.82-1.63,1.07-2.15,1.43-2.15c0.25,0,0.56,0.36,1.38,2.15
		c0.66,1.33,5.31,10.93,9.45,19.62c2.25,4.6,4.65,9.81,6.03,11.65c-1.33-0.05-2.61-0.1-3.17-0.1c-1.74,0-3.83,0.1-4.65,0.15
		c-0.77-1.99-2.61-6.39-3.78-8.94c0-0.1-0.05-0.15-0.2-0.15H294.13z M303.58,446.68c0.15,0,0.15-0.05,0.15-0.21l-4.34-10.06
		l-3.98,10.06c-0.05,0.15-0.05,0.21,0.1,0.21H303.58z"/>
	<path class="st0" d="M322.85,439.37c0-6.18-0.25-11.09-0.56-12.52c0.51,0.05,1.99,0.1,3.07,0.1c1.84,0,3.58-0.05,4.19-0.2
		c-0.2,1.69-0.46,6.44-0.46,12.41v7.3c0,7.77,0.1,8.63,0.31,8.84c0.15,0.1,0.56,0.26,1.18,0.31c0.92,0.1,2.35,0.15,4.24,0.15
		c4.19,0,6.79-0.41,8.12-1.07c-0.46,1.17-1.12,3.93-1.43,4.96c-0.31,0.1-0.97,0.1-3.12,0.1c-6.69,0-9.14-0.26-12.57-0.26
		c-1.79,0-2.76,0.05-3.42,0.1c0.15-1.58,0.46-6.13,0.46-12.57V439.37z"/>
	<path class="st0" d="M348.96,439.37c0-6.18-0.15-11.09-0.51-12.52c0.51,0.1,1.94,0.1,2.91,0.1c2.25,0,3.78-0.1,4.24-0.2
		c-0.15,1.69-0.41,6.49-0.41,12.62v7.66c0,5.11,0.15,11.24,0.51,12.57c-0.51-0.05-1.74-0.1-3.06-0.1c-1.43,0-3.47,0.1-4.09,0.15
		c0.25-1.74,0.41-7.1,0.41-12.62V439.37z"/>
	<path class="st0" d="M375.22,426.96h14c0.92,0,1.02,0,1.02,0.2c0,0.31-0.36,0.87-0.51,1.18c-6.13,9.5-11.95,18.39-17.93,27.33h8.22
		c4.96,0,8.94-0.21,10.58-1.18c-0.41,1.23-1.07,3.78-1.43,5.06c-0.2,0.1-1.53,0.1-2.76,0.1c-7.51,0-13.9-0.15-23.35-0.15
		c-0.51,0-0.56-0.1-0.56-0.26c0-0.15,0.15-0.51,0.87-1.58c5.93-8.63,12.01-17.78,17.93-26.97h-6.59c-7.15,0-10.06,0.92-11.03,1.53
		c0.31-1.38,0.66-3.58,0.92-5.72C365.77,426.75,368.27,426.96,375.22,426.96z"/>
	<path class="st0" d="M397.9,439.37c0-7.1-0.26-11.19-0.61-12.52c0.87,0.1,2.45,0.1,3.83,0.1h10.68c1.38,0,3.42,0,4.29-0.25
		c-0.15,0.92-0.41,2.96-0.41,5.26c-0.77-0.41-1.84-0.72-4.39-0.92c-1.53-0.1-4.39-0.2-7.05-0.2c-0.05,0-0.15,0.05-0.15,0.15v9.09
		c0,0.1,0.05,0.26,0.15,0.26c0.97,0,5.36,0,6.9-0.05c2.76-0.1,3.63-0.25,4.19-0.41c-0.31,1.43-0.46,4.04-0.46,5.31
		c-0.77-0.46-1.63-0.71-3.58-0.87c-1.48-0.1-5.93-0.15-7.05-0.15c-0.1,0-0.15,0.1-0.15,0.21v2.09c0,7.51,0.1,8.58,0.31,8.79
		c0.15,0.15,0.56,0.26,1.02,0.31c1.23,0.1,2.5,0.2,4.39,0.2c3.68,0,6.13-0.31,7.71-1.02c-0.46,1.43-0.97,3.68-1.12,4.9
		c-0.2,0.1-0.82,0.15-2.61,0.15c-6.03,0-9.55-0.31-12.21-0.31c-1.99,0-3.47,0.05-4.19,0.1c0.2-1.58,0.51-6.13,0.51-12.57V439.37z"/>
</g>
<g>
	<path class="st0" d="M291.79,397.34c3.27-0.14,6.87-0.89,9.71-3.24c4.91-4,5.33-10,5.33-15.94v-5.51c0-7.27,0.42-13.09,0.67-14.97
		c-0.42,0.12-2.06,0.24-4,0.24c-0.91,0-2.36-0.06-3.09-0.12c0.3,2,0.73,7.51,0.73,14.85v5.39c0,6.48-0.55,9.63-2.97,12
		c-1.76,1.7-4.61,2.12-6.55,2.12c-0.06,0-2.91,0-6.34,0l1.21,5.2C289.39,397.35,291.64,397.34,291.79,397.34z"/>
	<path class="st0" d="M273.31,392.15c-1.78-0.05-4.18-0.39-6.22-1.99c-2.42-1.88-3.7-4.48-3.7-10.73v-6.79
		c0-7.27,0.3-13.09,0.55-14.97c-0.97,0.18-2.97,0.24-5.33,0.24c-1.27,0-2.61-0.06-3.33-0.12c0.36,1.7,0.79,7.51,0.79,14.85v8.24
		c0,7.45,1.88,10.79,4.61,13.09c3.03,2.61,7.7,3.39,12.06,3.39c0.13,0,2.07,0,4.67,0l1.21-5.21
		C275.67,392.15,273.38,392.15,273.31,392.15z"/>
	<path class="st0" d="M285.35,401.35l-2.84-12.24c-0.06-0.27-0.3-0.45-0.57-0.45s-0.51,0.19-0.57,0.45l-2.38,10.25l-0.46,1.99
		c-0.04,0.17,0,0.36,0.11,0.5s0.28,0.22,0.46,0.22h5.68c0.18,0,0.35-0.08,0.46-0.22S285.39,401.52,285.35,401.35z"/>
</g>
</svg>
